# xmcd
#
# Track frame offsets: 
#        150
#        7300
#        28447
#        42632
#        55530
#        70150
#        90177
#        114350
#        132410
#        144827
#        161975
#        174920
#        194805
#        214562
#        232872
#        243015
#        254612
#        267500
#        283877
#        303415
#        312755
#        331200
#
# Disc length: 4502 seconds
#
# Revision: 3
# Processed by: cddbd v1.5.2PL0 Copyright (c) Steve Scherf et al.
# Submitted via: ExactAudioCopyFreeDBPlugin 1.0
#
DISCID=40119416
DTITLE=Mr. Serv-On - Da Next Level
DYEAR=1999
DGENRE=Rap
TTITLE0=Forever My Life: The Beginning
TTITLE1=Tank Nigga Feat. C-Murder, Fiend, Mia X, Lil Soldiers and Kane &
TTITLE1=Abel
TTITLE2=Boot 'Em Up Feat. Fiend and Mystikal
TTITLE3=From N.Y. To N.O. Feat. Big Punisher
TTITLE4=F.U. Serv
TTITLE5=Murder Feat. Magic
TTITLE6=I Hate The Way I Live
TTITLE7=Best Friend II Feat. C-Murder and Dorian
TTITLE8=1, 2, 3
TTITLE9=Straight Outta N.O. Feat. C-Murder and Magic
TTITLE10=Snatch Them Hoez Up Feat. Mia X and T. Scott
TTITLE11=My Homies
TTITLE12=This Is For My Niggaz Feat. Ghetto Commission
TTITLE13=Freaky Dreams Feat. O'Dell
TTITLE14=Make 'Em Bleed
TTITLE15=Hit The Block
TTITLE16=Strap Up Feat. Fiend
TTITLE17=I'll Be There Feat. Ms. Peaches
TTITLE18=My Story Feat. KLC
TTITLE19=I Luv It
TTITLE20=The Last Song Feat. O'Dell
TTITLE21=Forever My Life: The End
EXTD=Cashflow420.com
EXTT0=
EXTT1=
EXTT2=
EXTT3=
EXTT4=
EXTT5=
EXTT6=
EXTT7=
EXTT8=
EXTT9=
EXTT10=
EXTT11=
EXTT12=
EXTT13=
EXTT14=
EXTT15=
EXTT16=
EXTT17=
EXTT18=
EXTT19=
EXTT20=
EXTT21=
PLAYORDER=
